<svg width="21" height="21" viewBox="0 0 21 21" fill="none" xmlns="http://www.w3.org/2000/svg">
<path d="M14.0681 20.108H6.03607C4.43499 20.1061 2.90003 19.4693 1.7679 18.3371C0.635768 17.205 -0.00107705 15.67 -0.00292969 14.069V6.04098C-0.00134169 4.43973 0.635388 2.90451 1.76755 1.77216C2.89971 0.639813 4.43482 0.00282968 6.03607 0.000976562H14.0641C15.6651 0.0028292 17.2001 0.639674 18.3322 1.7718C19.4644 2.90394 20.1012 4.4389 20.1031 6.03998V14.068C20.1015 15.6685 19.4653 17.2031 18.334 18.3354C17.2027 19.4676 15.6686 20.1051 14.0681 20.108ZM6.03607 1.89297C4.93662 1.8943 3.88259 2.33164 3.10516 3.10907C2.32773 3.88649 1.8904 4.94053 1.88907 6.03998V14.068C1.88881 15.1685 2.32544 16.224 3.10304 17.0028C3.88064 17.7815 4.93558 18.2197 6.03607 18.221H14.0641C15.1638 18.2199 16.2182 17.7827 16.996 17.0053C17.7738 16.2279 18.2115 15.1737 18.2131 14.074V6.04597C18.2115 4.94626 17.7738 3.89208 16.996 3.11465C16.2182 2.33722 15.1638 1.90003 14.0641 1.89898L6.03607 1.89297Z" fill="white"/>
</svg>
